<svg xmlns="http://www.w3.org/2000/svg" width="20" height="20" viewBox="0 0 20 20">
  <g id="Group_83" data-name="Group 83" transform="translate(-87.001 -1552.5)">
    <circle id="Ellipse_23" data-name="Ellipse 23" cx="10" cy="10" r="10" transform="translate(87.001 1552.5)" fill="#da5f26"/>
    <g id="Group_82" data-name="Group 82">
      <g id="Group_81" data-name="Group 81">
        <path id="Path_113" data-name="Path 113" d="M99.932,1557.066a3.279,3.279,0,0,1,1.055,2.621,3.149,3.149,0,0,1-1.03,2.495,4.155,4.155,0,0,1-2.754.938v1.49h-2.7v-3.332h1.122a4.2,4.2,0,0,0,1.875-.343,1.262,1.262,0,0,0,.67-1.231,1.2,1.2,0,0,0-.318-.888A1.156,1.156,0,0,0,97,1558.5a1.243,1.243,0,0,0-.946.36,1.269,1.269,0,0,0-.344.913H93.017a3.452,3.452,0,0,1,.427-1.834,3.2,3.2,0,0,1,1.4-1.306,4.934,4.934,0,0,1,2.26-.477A4.18,4.18,0,0,1,99.932,1557.066Zm-2.579,8.917v2.863h-2.98v-2.863Z" fill="#fff"/>
      </g>
    </g>
  </g>
</svg>
